<svg xmlns="http://www.w3.org/2000/svg" width="1580" height="820" viewBox="0 0 1580 820">
<defs><marker id="arrow" markerWidth="10" markerHeight="7" refX="9" refY="3.5" orient="auto"><polygon points="0 0, 10 3.5, 0 7" fill="#475569"/></marker></defs>
<rect width="100%" height="100%" fill="#f8fafc"/>
<text x="40" y="28" font-family="Arial" font-size="22" font-weight="700" fill="#0f172a">LMS ERD (from prisma/schema.prisma)</text>
<line x1="230" y1="72.0" x2="300" y2="72.0" stroke="#94a3b8" stroke-width="1.4" marker-end="url(#arrow)"/>
<text x="269.0" y="68.0" font-family="Arial" font-size="10" fill="#64748b">1..N</text>
<line x1="230" y1="72.0" x2="40" y2="212.0" stroke="#94a3b8" stroke-width="1.4" marker-end="url(#arrow)"/>
<text x="139.0" y="138.0" font-family="Arial" font-size="10" fill="#64748b">1..N</text>
<line x1="230" y1="72.0" x2="300" y2="212.0" stroke="#94a3b8" stroke-width="1.4" marker-end="url(#arrow)"/>
<text x="269.0" y="138.0" font-family="Arial" font-size="10" fill="#64748b">1..N</text>
<line x1="230" y1="72.0" x2="560" y2="212.0" stroke="#94a3b8" stroke-width="1.4" marker-end="url(#arrow)"/>
<text x="399.0" y="138.0" font-family="Arial" font-size="10" fill="#64748b">1..N</text>
<line x1="230" y1="72.0" x2="40" y2="352.0" stroke="#94a3b8" stroke-width="1.4" marker-end="url(#arrow)"/>
<text x="139.0" y="208.0" font-family="Arial" font-size="10" fill="#64748b">1..N</text>
<line x1="230" y1="72.0" x2="300" y2="352.0" stroke="#94a3b8" stroke-width="1.4" marker-end="url(#arrow)"/>
<text x="269.0" y="208.0" font-family="Arial" font-size="10" fill="#64748b">1..N</text>
<line x1="230" y1="72.0" x2="560" y2="352.0" stroke="#94a3b8" stroke-width="1.4" marker-end="url(#arrow)"/>
<text x="399.0" y="208.0" font-family="Arial" font-size="10" fill="#64748b">1..N</text>
<line x1="230" y1="72.0" x2="40" y2="492.0" stroke="#94a3b8" stroke-width="1.4" marker-end="url(#arrow)"/>
<text x="139.0" y="278.0" font-family="Arial" font-size="10" fill="#64748b">1..N</text>
<line x1="230" y1="72.0" x2="300" y2="492.0" stroke="#94a3b8" stroke-width="1.4" marker-end="url(#arrow)"/>
<text x="269.0" y="278.0" font-family="Arial" font-size="10" fill="#64748b">1..N</text>
<line x1="230" y1="72.0" x2="40" y2="632.0" stroke="#94a3b8" stroke-width="1.4" marker-end="url(#arrow)"/>
<text x="139.0" y="348.0" font-family="Arial" font-size="10" fill="#64748b">1..N</text>
<line x1="230" y1="72.0" x2="300" y2="632.0" stroke="#94a3b8" stroke-width="1.4" marker-end="url(#arrow)"/>
<text x="269.0" y="348.0" font-family="Arial" font-size="10" fill="#64748b">1..N</text>
<line x1="230" y1="72.0" x2="560" y2="632.0" stroke="#94a3b8" stroke-width="1.4" marker-end="url(#arrow)"/>
<text x="399.0" y="348.0" font-family="Arial" font-size="10" fill="#64748b">1..N</text>
<line x1="230" y1="72.0" x2="820" y2="632.0" stroke="#94a3b8" stroke-width="1.4" marker-end="url(#arrow)"/>
<text x="529.0" y="348.0" font-family="Arial" font-size="10" fill="#64748b">1..N</text>
<line x1="230" y1="72.0" x2="1080" y2="632.0" stroke="#94a3b8" stroke-width="1.4" marker-end="url(#arrow)"/>
<text x="659.0" y="348.0" font-family="Arial" font-size="10" fill="#64748b">1..N</text>
<line x1="230" y1="72.0" x2="1340" y2="632.0" stroke="#94a3b8" stroke-width="1.4" marker-end="url(#arrow)"/>
<text x="789.0" y="348.0" font-family="Arial" font-size="10" fill="#64748b">1..N</text>
<line x1="230" y1="72.0" x2="820" y2="212.0" stroke="#94a3b8" stroke-width="1.4" marker-end="url(#arrow)"/>
<text x="529.0" y="138.0" font-family="Arial" font-size="10" fill="#64748b">1..N</text>
<line x1="230" y1="72.0" x2="1080" y2="212.0" stroke="#94a3b8" stroke-width="1.4" marker-end="url(#arrow)"/>
<text x="659.0" y="138.0" font-family="Arial" font-size="10" fill="#64748b">1..N</text>
<line x1="230" y1="72.0" x2="1340" y2="212.0" stroke="#94a3b8" stroke-width="1.4" marker-end="url(#arrow)"/>
<text x="789.0" y="138.0" font-family="Arial" font-size="10" fill="#64748b">1..N</text>
<line x1="230" y1="72.0" x2="560" y2="72.0" stroke="#94a3b8" stroke-width="1.4" marker-end="url(#arrow)"/>
<text x="399.0" y="68.0" font-family="Arial" font-size="10" fill="#64748b">1..N</text>
<line x1="230" y1="72.0" x2="820" y2="72.0" stroke="#94a3b8" stroke-width="1.4" marker-end="url(#arrow)"/>
<text x="529.0" y="68.0" font-family="Arial" font-size="10" fill="#64748b">0..N</text>
<line x1="490" y1="72.0" x2="300" y2="212.0" stroke="#94a3b8" stroke-width="1.4" marker-end="url(#arrow)"/>
<text x="399.0" y="138.0" font-family="Arial" font-size="10" fill="#64748b">1..0/1</text>
<line x1="490" y1="72.0" x2="560" y2="212.0" stroke="#94a3b8" stroke-width="1.4" marker-end="url(#arrow)"/>
<text x="529.0" y="138.0" font-family="Arial" font-size="10" fill="#64748b">1..0/1</text>
<line x1="490" y1="72.0" x2="1080" y2="72.0" stroke="#94a3b8" stroke-width="1.4" marker-end="url(#arrow)"/>
<text x="789.0" y="68.0" font-family="Arial" font-size="10" fill="#64748b">1..N</text>
<line x1="490" y1="72.0" x2="1340" y2="72.0" stroke="#94a3b8" stroke-width="1.4" marker-end="url(#arrow)"/>
<text x="919.0" y="68.0" font-family="Arial" font-size="10" fill="#64748b">1..N</text>
<line x1="490" y1="72.0" x2="1080" y2="352.0" stroke="#94a3b8" stroke-width="1.4" marker-end="url(#arrow)"/>
<text x="789.0" y="208.0" font-family="Arial" font-size="10" fill="#64748b">1..N</text>
<line x1="490" y1="72.0" x2="1340" y2="352.0" stroke="#94a3b8" stroke-width="1.4" marker-end="url(#arrow)"/>
<text x="919.0" y="208.0" font-family="Arial" font-size="10" fill="#64748b">1..N</text>
<line x1="490" y1="72.0" x2="820" y2="72.0" stroke="#94a3b8" stroke-width="1.4" marker-end="url(#arrow)"/>
<text x="659.0" y="68.0" font-family="Arial" font-size="10" fill="#64748b">0..N</text>
<line x1="230" y1="212.0" x2="300" y2="212.0" stroke="#94a3b8" stroke-width="1.4" marker-end="url(#arrow)"/>
<text x="269.0" y="208.0" font-family="Arial" font-size="10" fill="#64748b">1..N</text>
<line x1="230" y1="212.0" x2="560" y2="212.0" stroke="#94a3b8" stroke-width="1.4" marker-end="url(#arrow)"/>
<text x="399.0" y="208.0" font-family="Arial" font-size="10" fill="#64748b">1..N</text>
<line x1="230" y1="212.0" x2="300" y2="492.0" stroke="#94a3b8" stroke-width="1.4" marker-end="url(#arrow)"/>
<text x="269.0" y="348.0" font-family="Arial" font-size="10" fill="#64748b">1..N</text>
<line x1="300" y1="352.0" x2="230" y2="492.0" stroke="#94a3b8" stroke-width="1.4" marker-end="url(#arrow)"/>
<text x="269.0" y="418.0" font-family="Arial" font-size="10" fill="#64748b">1..N</text>
<line x1="490" y1="352.0" x2="560" y2="352.0" stroke="#94a3b8" stroke-width="1.4" marker-end="url(#arrow)"/>
<text x="529.0" y="348.0" font-family="Arial" font-size="10" fill="#64748b">1..N</text>
<line x1="230" y1="352.0" x2="560" y2="352.0" stroke="#94a3b8" stroke-width="1.4" marker-end="url(#arrow)"/>
<text x="399.0" y="348.0" font-family="Arial" font-size="10" fill="#64748b">1..N</text>
<line x1="230" y1="492.0" x2="300" y2="492.0" stroke="#94a3b8" stroke-width="1.4" marker-end="url(#arrow)"/>
<text x="269.0" y="488.0" font-family="Arial" font-size="10" fill="#64748b">1..N</text>
<line x1="490" y1="492.0" x2="820" y2="492.0" stroke="#94a3b8" stroke-width="1.4" marker-end="url(#arrow)"/>
<text x="659.0" y="488.0" font-family="Arial" font-size="10" fill="#64748b">1..N</text>
<line x1="490" y1="492.0" x2="560" y2="492.0" stroke="#94a3b8" stroke-width="1.4" marker-end="url(#arrow)"/>
<text x="529.0" y="488.0" font-family="Arial" font-size="10" fill="#64748b">1..N</text>
<line x1="490" y1="212.0" x2="560" y2="492.0" stroke="#94a3b8" stroke-width="1.4" marker-end="url(#arrow)"/>
<text x="529.0" y="348.0" font-family="Arial" font-size="10" fill="#64748b">1..N</text>
<line x1="560" y1="212.0" x2="230" y2="632.0" stroke="#94a3b8" stroke-width="1.4" marker-end="url(#arrow)"/>
<text x="399.0" y="418.0" font-family="Arial" font-size="10" fill="#64748b">1..N</text>
<line x1="300" y1="492.0" x2="230" y2="632.0" stroke="#94a3b8" stroke-width="1.4" marker-end="url(#arrow)"/>
<text x="269.0" y="558.0" font-family="Arial" font-size="10" fill="#64748b">1..N</text>
<line x1="230" y1="632.0" x2="300" y2="632.0" stroke="#94a3b8" stroke-width="1.4" marker-end="url(#arrow)"/>
<text x="269.0" y="628.0" font-family="Arial" font-size="10" fill="#64748b">1..N</text>
<line x1="230" y1="632.0" x2="560" y2="632.0" stroke="#94a3b8" stroke-width="1.4" marker-end="url(#arrow)"/>
<text x="399.0" y="628.0" font-family="Arial" font-size="10" fill="#64748b">1..1</text>
<line x1="230" y1="632.0" x2="820" y2="632.0" stroke="#94a3b8" stroke-width="1.4" marker-end="url(#arrow)"/>
<text x="529.0" y="628.0" font-family="Arial" font-size="10" fill="#64748b">1..N</text>
<line x1="750" y1="212.0" x2="820" y2="632.0" stroke="#94a3b8" stroke-width="1.4" marker-end="url(#arrow)"/>
<text x="789.0" y="418.0" font-family="Arial" font-size="10" fill="#64748b">1..N</text>
<line x1="1010" y1="632.0" x2="1080" y2="632.0" stroke="#94a3b8" stroke-width="1.4" marker-end="url(#arrow)"/>
<text x="1049.0" y="628.0" font-family="Arial" font-size="10" fill="#64748b">1..N</text>
<line x1="1270" y1="632.0" x2="1340" y2="632.0" stroke="#94a3b8" stroke-width="1.4" marker-end="url(#arrow)"/>
<text x="1309.0" y="628.0" font-family="Arial" font-size="10" fill="#64748b">1..N</text>
<line x1="490" y1="492.0" x2="820" y2="212.0" stroke="#94a3b8" stroke-width="1.4" marker-end="url(#arrow)"/>
<text x="659.0" y="348.0" font-family="Arial" font-size="10" fill="#64748b">1..N</text>
<line x1="490" y1="212.0" x2="820" y2="212.0" stroke="#94a3b8" stroke-width="1.4" marker-end="url(#arrow)"/>
<text x="659.0" y="208.0" font-family="Arial" font-size="10" fill="#64748b">1..N</text>
<line x1="490" y1="492.0" x2="1080" y2="212.0" stroke="#94a3b8" stroke-width="1.4" marker-end="url(#arrow)"/>
<text x="789.0" y="348.0" font-family="Arial" font-size="10" fill="#64748b">1..N</text>
<line x1="490" y1="212.0" x2="1080" y2="212.0" stroke="#94a3b8" stroke-width="1.4" marker-end="url(#arrow)"/>
<text x="789.0" y="208.0" font-family="Arial" font-size="10" fill="#64748b">1..N</text>
<line x1="490" y1="212.0" x2="1340" y2="212.0" stroke="#94a3b8" stroke-width="1.4" marker-end="url(#arrow)"/>
<text x="919.0" y="208.0" font-family="Arial" font-size="10" fill="#64748b">1..N</text>
<rect x="40" y="40" rx="10" ry="10" width="190" height="64" fill="#ffffff" stroke="#334155" stroke-width="1.6"/>
<text x="52" y="66" font-family="Arial" font-size="14" font-weight="700" fill="#0f172a">Tenant</text>
<text x="52" y="86" font-family="Arial" font-size="11" fill="#64748b">PK: id</text>
<rect x="300" y="40" rx="10" ry="10" width="190" height="64" fill="#ffffff" stroke="#334155" stroke-width="1.6"/>
<text x="312" y="66" font-family="Arial" font-size="14" font-weight="700" fill="#0f172a">User</text>
<text x="312" y="86" font-family="Arial" font-size="11" fill="#64748b">PK: id</text>
<rect x="560" y="40" rx="10" ry="10" width="190" height="64" fill="#ffffff" stroke="#334155" stroke-width="1.6"/>
<text x="572" y="66" font-family="Arial" font-size="14" font-weight="700" fill="#0f172a">Subscription</text>
<text x="572" y="86" font-family="Arial" font-size="11" fill="#64748b">PK: id</text>
<rect x="40" y="180" rx="10" ry="10" width="190" height="64" fill="#ffffff" stroke="#334155" stroke-width="1.6"/>
<text x="52" y="206" font-family="Arial" font-size="14" font-weight="700" fill="#0f172a">Branch</text>
<text x="52" y="226" font-family="Arial" font-size="11" fill="#64748b">PK: id</text>
<rect x="300" y="180" rx="10" ry="10" width="190" height="64" fill="#ffffff" stroke="#334155" stroke-width="1.6"/>
<text x="312" y="206" font-family="Arial" font-size="14" font-weight="700" fill="#0f172a">Staff</text>
<text x="312" y="226" font-family="Arial" font-size="11" fill="#64748b">PK: id</text>
<rect x="560" y="180" rx="10" ry="10" width="190" height="64" fill="#ffffff" stroke="#334155" stroke-width="1.6"/>
<text x="572" y="206" font-family="Arial" font-size="14" font-weight="700" fill="#0f172a">Student</text>
<text x="572" y="226" font-family="Arial" font-size="11" fill="#64748b">PK: id</text>
<rect x="40" y="320" rx="10" ry="10" width="190" height="64" fill="#ffffff" stroke="#334155" stroke-width="1.6"/>
<text x="52" y="346" font-family="Arial" font-size="14" font-weight="700" fill="#0f172a">Subject</text>
<text x="52" y="366" font-family="Arial" font-size="11" fill="#64748b">PK: id</text>
<rect x="300" y="320" rx="10" ry="10" width="190" height="64" fill="#ffffff" stroke="#334155" stroke-width="1.6"/>
<text x="312" y="346" font-family="Arial" font-size="14" font-weight="700" fill="#0f172a">Course</text>
<text x="312" y="366" font-family="Arial" font-size="11" fill="#64748b">PK: id</text>
<rect x="560" y="320" rx="10" ry="10" width="190" height="64" fill="#ffffff" stroke="#334155" stroke-width="1.6"/>
<text x="572" y="346" font-family="Arial" font-size="14" font-weight="700" fill="#0f172a">CourseSubject</text>
<text x="572" y="366" font-family="Arial" font-size="11" fill="#64748b">PK: id</text>
<rect x="40" y="460" rx="10" ry="10" width="190" height="64" fill="#ffffff" stroke="#334155" stroke-width="1.6"/>
<text x="52" y="486" font-family="Arial" font-size="14" font-weight="700" fill="#0f172a">Class</text>
<text x="52" y="506" font-family="Arial" font-size="11" fill="#64748b">PK: id</text>
<rect x="300" y="460" rx="10" ry="10" width="190" height="64" fill="#ffffff" stroke="#334155" stroke-width="1.6"/>
<text x="312" y="486" font-family="Arial" font-size="14" font-weight="700" fill="#0f172a">Section</text>
<text x="312" y="506" font-family="Arial" font-size="11" fill="#64748b">PK: id</text>
<rect x="560" y="460" rx="10" ry="10" width="190" height="64" fill="#ffffff" stroke="#334155" stroke-width="1.6"/>
<text x="572" y="486" font-family="Arial" font-size="14" font-weight="700" fill="#0f172a">SectionStaff</text>
<text x="572" y="506" font-family="Arial" font-size="11" fill="#64748b">PK: id</text>
<rect x="820" y="460" rx="10" ry="10" width="190" height="64" fill="#ffffff" stroke="#334155" stroke-width="1.6"/>
<text x="832" y="486" font-family="Arial" font-size="14" font-weight="700" fill="#0f172a">SectionSchedule</text>
<text x="832" y="506" font-family="Arial" font-size="11" fill="#64748b">PK: id</text>
<rect x="40" y="600" rx="10" ry="10" width="190" height="64" fill="#ffffff" stroke="#334155" stroke-width="1.6"/>
<text x="52" y="626" font-family="Arial" font-size="14" font-weight="700" fill="#0f172a">Enrollment</text>
<text x="52" y="646" font-family="Arial" font-size="11" fill="#64748b">PK: id</text>
<rect x="300" y="600" rx="10" ry="10" width="190" height="64" fill="#ffffff" stroke="#334155" stroke-width="1.6"/>
<text x="312" y="626" font-family="Arial" font-size="14" font-weight="700" fill="#0f172a">Attendance</text>
<text x="312" y="646" font-family="Arial" font-size="11" fill="#64748b">PK: id</text>
<rect x="560" y="600" rx="10" ry="10" width="190" height="64" fill="#ffffff" stroke="#334155" stroke-width="1.6"/>
<text x="572" y="626" font-family="Arial" font-size="14" font-weight="700" fill="#0f172a">Progress</text>
<text x="572" y="646" font-family="Arial" font-size="11" fill="#64748b">PK: id</text>
<rect x="820" y="600" rx="10" ry="10" width="190" height="64" fill="#ffffff" stroke="#334155" stroke-width="1.6"/>
<text x="832" y="626" font-family="Arial" font-size="14" font-weight="700" fill="#0f172a">Invoice</text>
<text x="832" y="646" font-family="Arial" font-size="11" fill="#64748b">PK: id</text>
<rect x="1080" y="600" rx="10" ry="10" width="190" height="64" fill="#ffffff" stroke="#334155" stroke-width="1.6"/>
<text x="1092" y="626" font-family="Arial" font-size="14" font-weight="700" fill="#0f172a">Payment</text>
<text x="1092" y="646" font-family="Arial" font-size="11" fill="#64748b">PK: id</text>
<rect x="1340" y="600" rx="10" ry="10" width="190" height="64" fill="#ffffff" stroke="#334155" stroke-width="1.6"/>
<text x="1352" y="626" font-family="Arial" font-size="14" font-weight="700" fill="#0f172a">Refund</text>
<text x="1352" y="646" font-family="Arial" font-size="11" fill="#64748b">PK: id</text>
<rect x="820" y="180" rx="10" ry="10" width="190" height="64" fill="#ffffff" stroke="#334155" stroke-width="1.6"/>
<text x="832" y="206" font-family="Arial" font-size="14" font-weight="700" fill="#0f172a">Timetable</text>
<text x="832" y="226" font-family="Arial" font-size="11" fill="#64748b">PK: id</text>
<rect x="1080" y="180" rx="10" ry="10" width="190" height="64" fill="#ffffff" stroke="#334155" stroke-width="1.6"/>
<text x="1092" y="206" font-family="Arial" font-size="14" font-weight="700" fill="#0f172a">StaffAttendance</text>
<text x="1092" y="226" font-family="Arial" font-size="11" fill="#64748b">PK: id</text>
<rect x="1340" y="180" rx="10" ry="10" width="190" height="64" fill="#ffffff" stroke="#334155" stroke-width="1.6"/>
<text x="1352" y="206" font-family="Arial" font-size="14" font-weight="700" fill="#0f172a">Payroll</text>
<text x="1352" y="226" font-family="Arial" font-size="11" fill="#64748b">PK: id</text>
<rect x="820" y="40" rx="10" ry="10" width="190" height="64" fill="#ffffff" stroke="#334155" stroke-width="1.6"/>
<text x="832" y="66" font-family="Arial" font-size="14" font-weight="700" fill="#0f172a">AuditLog</text>
<text x="832" y="86" font-family="Arial" font-size="11" fill="#64748b">PK: id</text>
<rect x="1080" y="40" rx="10" ry="10" width="190" height="64" fill="#ffffff" stroke="#334155" stroke-width="1.6"/>
<text x="1092" y="66" font-family="Arial" font-size="14" font-weight="700" fill="#0f172a">Account</text>
<text x="1092" y="86" font-family="Arial" font-size="11" fill="#64748b">PK: id</text>
<rect x="1340" y="40" rx="10" ry="10" width="190" height="64" fill="#ffffff" stroke="#334155" stroke-width="1.6"/>
<text x="1352" y="66" font-family="Arial" font-size="14" font-weight="700" fill="#0f172a">Session</text>
<text x="1352" y="86" font-family="Arial" font-size="11" fill="#64748b">PK: id</text>
<rect x="1080" y="320" rx="10" ry="10" width="190" height="64" fill="#ffffff" stroke="#334155" stroke-width="1.6"/>
<text x="1092" y="346" font-family="Arial" font-size="14" font-weight="700" fill="#0f172a">Notification</text>
<text x="1092" y="366" font-family="Arial" font-size="11" fill="#64748b">PK: id</text>
<rect x="1340" y="320" rx="10" ry="10" width="190" height="64" fill="#ffffff" stroke="#334155" stroke-width="1.6"/>
<text x="1352" y="346" font-family="Arial" font-size="14" font-weight="700" fill="#0f172a">LoginApprovalRequest</text>
<text x="1352" y="366" font-family="Arial" font-size="11" fill="#64748b">PK: id</text>
</svg>